<svg xmlns="http://www.w3.org/2000/svg" xmlns:xlink="http://www.w3.org/1999/xlink" width="500" zoomAndPan="magnify" viewBox="0 0 375 334.49999" height="446" preserveAspectRatio="xMidYMid meet" version="1.0"><path fill="#e94523" d="M 266.734375 190.242188 L 222.316406 206.574219 L 191.5 217.90625 L 180.703125 221.878906 L 159.269531 229.757812 L 138.152344 237.527344 C 129.878906 240.574219 121.324219 233.75 122.453125 224.996094 L 138.550781 99.464844 C 139.675781 90.710938 149.675781 86.269531 156.90625 91.304688 L 159.269531 92.949219 L 180.699219 107.855469 L 191.5 115.371094 L 222.3125 136.804688 L 269.386719 169.550781 C 277.1875 174.980469 275.652344 186.953125 266.730469 190.234375 Z M 266.734375 190.242188 " fill-opacity="1" fill-rule="nonzero"/><path fill="#ffc800" d="M 266.734375 190.242188 L 222.316406 206.574219 L 191.5 217.90625 L 180.703125 221.878906 L 159.269531 229.757812 L 138.152344 237.527344 C 129.878906 240.574219 121.324219 233.75 122.453125 224.996094 L 138.550781 99.464844 C 139.675781 90.710938 149.675781 86.269531 156.90625 91.304688 L 159.269531 92.949219 L 180.699219 107.855469 L 191.5 115.371094 L 222.3125 136.804688 L 269.386719 169.550781 C 277.1875 174.980469 275.652344 186.953125 266.730469 190.234375 Z M 266.734375 190.242188 " fill-opacity="0.3" fill-rule="nonzero"/><path fill="#ffc800" d="M 124.960938 225.390625 C 124.992188 225.425781 125.011719 225.445312 125.042969 225.476562 C 125.582031 225.832031 126.105469 226.191406 126.664062 226.515625 C 127.269531 226.863281 127.890625 227.1875 128.515625 227.496094 C 128.933594 227.703125 129.363281 227.902344 129.789062 228.09375 C 129.375 227.917969 128.960938 227.742188 128.546875 227.566406 C 128.828125 228.199219 131.875 228.730469 132.589844 228.929688 C 133.503906 229.183594 134.433594 229.398438 135.371094 229.570312 C 137.933594 230.046875 135.382812 229.628906 135.382812 229.609375 C 135.382812 230.390625 142.101562 229.242188 143.039062 229.535156 C 143.113281 229.523438 143.1875 229.507812 143.261719 229.496094 C 144.167969 229.316406 145.070312 229.113281 145.964844 228.886719 C 147.457031 228.511719 148.929688 228.070312 150.386719 227.574219 C 151.519531 227.1875 152.632812 226.757812 153.75 226.320312 C 153.773438 226.308594 153.792969 226.300781 153.816406 226.289062 C 155.511719 225.511719 157.191406 224.710938 158.847656 223.855469 C 161.628906 222.414062 164.347656 220.851562 167.039062 219.246094 C 180.066406 211.476562 192.75 203.773438 206.824219 197.980469 C 220.34375 192.417969 234.4375 188.75 248.914062 186.773438 C 256.703125 185.710938 264.507812 184.984375 272.375 184.871094 C 272.578125 184.871094 272.78125 184.867188 272.988281 184.867188 C 275.671875 179.917969 274.679688 173.230469 269.390625 169.550781 L 222.320312 136.804688 L 191.503906 115.371094 L 180.703125 107.855469 L 159.273438 92.949219 L 156.910156 91.304688 C 149.675781 86.269531 139.679688 90.707031 138.554688 99.464844 L 122.691406 223.167969 C 123.445312 223.914062 124.199219 224.65625 124.960938 225.390625 Z M 124.960938 225.390625 " fill-opacity="0.3" fill-rule="nonzero"/><path fill="#ffc800" d="M 124.414062 216.875 C 124.484375 216.921875 124.5625 216.96875 124.652344 217.023438 C 124.988281 217.238281 125.3125 217.464844 125.648438 217.671875 C 126.542969 218.234375 127.472656 218.746094 128.414062 219.21875 C 128.460938 219.242188 128.507812 219.261719 128.554688 219.285156 C 128.847656 219.386719 129.269531 219.601562 129.40625 219.648438 C 130.425781 219.996094 131.464844 220.285156 132.519531 220.503906 C 132.53125 220.507812 132.558594 220.511719 132.582031 220.515625 C 132.6875 220.445312 133.382812 220.417969 133.671875 220.644531 C 134.480469 220.675781 135.28125 220.710938 136.089844 220.6875 C 136.410156 220.679688 136.726562 220.660156 137.042969 220.644531 C 137.433594 220.5 137.707031 220.429688 137.875 220.40625 C 139.304688 220.042969 140.882812 219.902344 142.261719 219.46875 C 143.148438 219.1875 144.007812 218.84375 144.886719 218.539062 C 145.183594 218.402344 145.480469 218.269531 145.777344 218.132812 C 153.375 214.539062 160.246094 209.554688 167.300781 205.027344 C 183.589844 194.574219 201.535156 189.703125 220.417969 186.390625 C 229.328125 184.832031 238.261719 183.199219 246.960938 180.675781 C 251.40625 179.386719 255.730469 177.839844 260.054688 176.191406 C 260.0625 176.1875 260.066406 176.183594 260.070312 176.183594 C 260.152344 176.144531 260.238281 176.105469 260.335938 176.0625 C 260.761719 175.863281 261.195312 175.675781 261.625 175.476562 C 262.621094 175.007812 263.617188 174.539062 264.605469 174.054688 C 266.574219 173.085938 268.519531 172.050781 270.398438 170.910156 C 270.523438 170.835938 270.640625 170.75 270.765625 170.671875 C 270.34375 170.277344 269.882812 169.902344 269.386719 169.558594 L 222.3125 136.8125 L 191.5 115.375 L 180.699219 107.863281 L 159.269531 92.957031 L 156.90625 91.3125 C 149.671875 86.277344 139.675781 90.714844 138.550781 99.472656 L 123.585938 216.164062 C 123.863281 216.402344 124.136719 216.644531 124.414062 216.882812 Z M 124.414062 216.875 " fill-opacity="0.3" fill-rule="nonzero"/><path fill="#ffc800" d="M 138.585938 199.425781 C 159.167969 178.804688 182.710938 160.902344 210.386719 151.054688 C 217.988281 148.351562 226.042969 146.308594 234.253906 145.113281 L 222.320312 136.808594 L 191.503906 115.375 L 180.703125 107.859375 L 159.273438 92.953125 L 156.910156 91.3125 C 149.675781 86.273438 139.679688 90.714844 138.554688 99.46875 L 123.683594 215.417969 C 128.519531 209.960938 133.441406 204.585938 138.589844 199.425781 Z M 138.585938 199.425781 " fill-opacity="0.3" fill-rule="nonzero"/><path fill="#ffc800" d="M 146.027344 89.972656 C 144.355469 90.613281 142.828125 91.625 141.589844 92.953125 C 141.328125 95.84375 141.074219 98.734375 140.847656 101.621094 C 138.382812 132.832031 135.9375 164.054688 133.910156 195.300781 C 147.128906 178.234375 164.394531 164.0625 183.460938 154.257812 C 191.464844 150.144531 199.878906 146.597656 208.527344 143.917969 C 187.523438 126.132812 166.679688 108.15625 146.023438 89.972656 Z M 146.027344 89.972656 " fill-opacity="0.3" fill-rule="nonzero"/><path fill="#ffffff" d="M 165.601562 121.320312 C 165.59375 121.265625 165.59375 121.21875 165.589844 121.171875 C 165.574219 121.113281 165.5625 121.050781 165.546875 120.980469 C 165.390625 120.265625 165.273438 119.542969 165.113281 118.828125 C 164.824219 117.539062 164.480469 116.261719 164.085938 114.996094 C 163.832031 114.191406 163.632812 113.160156 163.265625 112.324219 C 163.117188 112.109375 162.964844 111.859375 162.859375 111.640625 C 162.605469 111.105469 162.34375 110.578125 162.074219 110.050781 C 160.871094 107.730469 159.464844 104.832031 157.605469 102.960938 C 159.855469 105.226562 156.863281 102.175781 156.429688 101.699219 C 155.558594 100.734375 154.648438 99.800781 153.710938 98.898438 C 152.660156 97.894531 151.550781 96.960938 150.457031 96.011719 C 150.277344 95.855469 150.148438 95.742188 150.042969 95.648438 C 149.714844 95.414062 149.378906 95.191406 149.050781 94.960938 C 147.230469 93.675781 145.332031 92.515625 143.414062 91.375 C 142.757812 91.835938 142.144531 92.363281 141.589844 92.957031 C 141.328125 95.851562 141.074219 98.742188 140.847656 101.625 C 139.023438 124.710938 137.214844 147.804688 135.574219 170.910156 C 136.125 170.253906 136.6875 169.609375 137.246094 168.976562 C 140.785156 164.992188 144.65625 161.332031 148.449219 157.597656 C 150.445312 155.632812 152.441406 153.660156 154.371094 151.628906 C 155.285156 150.671875 156.179688 149.703125 157.058594 148.707031 C 157.445312 148.269531 157.820312 147.816406 158.210938 147.378906 C 158.273438 147.308594 158.316406 147.257812 158.367188 147.203125 C 158.390625 147.167969 158.40625 147.140625 158.433594 147.097656 C 159.878906 144.75 161.472656 142.554688 162.722656 140.082031 C 162.984375 139.566406 163.238281 139.046875 163.480469 138.519531 C 163.515625 138.445312 164.003906 137.148438 164.105469 136.9375 C 164.125 136.871094 164.148438 136.808594 164.160156 136.769531 C 164.394531 136.078125 164.613281 135.382812 164.808594 134.679688 C 165.203125 133.277344 165.492188 131.855469 165.753906 130.425781 C 165.796875 130.175781 165.832031 130 165.863281 129.855469 C 165.867188 129.441406 165.84375 129.019531 165.855469 128.730469 C 165.984375 126.242188 165.8125 123.800781 165.601562 121.320312 Z M 165.601562 121.320312 " fill-opacity="0.3" fill-rule="nonzero"/><path fill="#ffffff" d="M 160.632812 123.757812 C 162.398438 121.875 162.027344 118.867188 159.855469 117.480469 C 159.839844 117.472656 159.824219 117.464844 159.8125 117.453125 C 156.964844 115.640625 154.136719 113.804688 151.335938 111.929688 C 146.53125 108.703125 140.039062 111.847656 139.585938 117.621094 C 138.582031 130.464844 137.589844 143.316406 136.640625 156.164062 C 143.214844 144.445312 151.441406 133.53125 160.632812 123.753906 Z M 160.632812 123.757812 " fill-opacity="0.3" fill-rule="nonzero"/><path fill="#ffffff" d="M 150.121094 120.03125 C 150.859375 118.640625 151.617188 117.257812 152.398438 115.890625 C 153.160156 114.5625 152.746094 112.871094 151.472656 112.023438 C 151.425781 111.988281 151.371094 111.957031 151.324219 111.921875 C 146.527344 108.703125 140.039062 111.867188 139.589844 117.625 C 138.667969 129.386719 137.765625 141.148438 136.890625 152.914062 C 140.125 141.53125 144.566406 130.488281 150.121094 120.035156 Z M 150.121094 120.03125 " fill-opacity="0.3" fill-rule="nonzero"/><path fill="#ffffff" d="M 143.25 102.492188 L 131.089844 183.085938 C 130.109375 189.59375 137.902344 193.667969 142.679688 189.148438 L 197.3125 137.441406 C 202.550781 132.480469 201.753906 123.921875 195.695312 120.011719 L 158.117188 95.773438 C 152.191406 91.953125 144.300781 95.519531 143.25 102.492188 Z M 143.25 102.492188 " fill-opacity="0.4" fill-rule="nonzero"/><path fill="#ffffff" d="M 133.277344 177.4375 C 143.738281 155.648438 159.0625 135.871094 177.175781 119.902344 C 179.765625 117.617188 182.425781 115.378906 185.140625 113.207031 L 158.117188 95.773438 C 152.191406 91.953125 144.300781 95.519531 143.25 102.492188 L 131.300781 181.683594 C 131.945312 180.261719 132.601562 178.847656 133.277344 177.441406 Z M 133.277344 177.4375 " fill-opacity="0.4" fill-rule="nonzero"/><path fill="#ffffff" d="M 142.992188 96.179688 L 141.582031 116.679688 C 141.371094 119.71875 145.085938 121.347656 147.179688 119.132812 L 154.546875 111.328125 C 155.734375 110.066406 157.25 109.171875 158.925781 108.742188 L 168.882812 106.179688 C 170.117188 105.859375 170.371094 104.210938 169.285156 103.535156 L 150.839844 92.144531 C 147.542969 90.105469 143.261719 92.308594 142.992188 96.179688 Z M 142.992188 96.179688 " fill-opacity="0.31" fill-rule="nonzero"/><path fill="#e94523" d="M 321.640625 6.015625 L 55.367188 6.09375 C 29.4375 6.105469 8.378906 27.066406 8.226562 53.011719 L 6.9375 279.128906 C 6.789062 305.371094 28.054688 326.6875 54.265625 326.589844 L 319.011719 325.582031 C 344.75 325.488281 365.65625 304.75 365.980469 278.992188 L 368.800781 53.796875 C 369.128906 27.503906 347.914062 6.011719 321.636719 6.015625 Z M 305.546875 209.832031 C 302.976562 217.453125 297.089844 223.496094 289.546875 226.273438 L 132.515625 284.003906 C 117.742188 289.4375 101.765625 279.699219 99.8125 264.078125 L 86.667969 159.113281 L 37.367188 221.222656 L 126.914062 58.410156 C 130.640625 51.636719 139.355469 49.496094 145.789062 53.78125 L 299.601562 156.210938 L 350.941406 75.421875 L 305.546875 209.835938 Z M 305.546875 209.832031 " fill-opacity="1" fill-rule="nonzero"/><path fill="#e94523" d="M 239.390625 93.179688 C 239.46875 93.066406 239.550781 92.949219 239.632812 92.832031 C 234.757812 97.390625 229.898438 101.964844 225.074219 106.578125 L 228.816406 109.070312 C 232.265625 103.722656 235.78125 98.414062 239.390625 93.179688 Z M 239.390625 93.179688 " fill-opacity="1" fill-rule="nonzero"/><path fill="#e94523" d="M 367.972656 44.34375 C 352.476562 69.804688 336.949219 95.246094 320.839844 120.316406 C 313.332031 131.996094 305.808594 143.664062 298.285156 155.332031 L 299.597656 156.203125 L 350.9375 75.417969 L 305.542969 209.828125 C 302.96875 217.449219 297.082031 223.496094 289.539062 226.269531 L 132.511719 284.003906 C 117.738281 289.433594 101.761719 279.699219 99.804688 264.074219 L 86.664062 159.113281 L 37.363281 221.222656 L 79.5625 144.496094 C 55.40625 174.746094 31.269531 205.011719 7.183594 235.320312 L 6.929688 279.128906 C 6.78125 305.371094 28.046875 326.6875 54.261719 326.589844 L 319.003906 325.582031 C 344.746094 325.488281 365.652344 304.75 365.976562 278.992188 L 368.792969 53.796875 C 368.835938 50.5625 368.546875 47.402344 367.96875 44.34375 Z M 367.972656 44.34375 " fill-opacity="1" fill-rule="nonzero"/><path fill="#fe5282" d="M 357.359375 74.488281 C 352.613281 83.761719 347.414062 92.753906 342.074219 101.679688 L 305.546875 209.835938 C 302.976562 217.453125 297.089844 223.5 289.546875 226.273438 L 271.378906 232.957031 C 264.859375 237.699219 257.992188 241.960938 251.082031 246.109375 C 223.28125 262.8125 193.503906 276.78125 162.402344 286.078125 C 145.023438 291.277344 124.71875 294.367188 108.457031 283.996094 C 93.453125 274.425781 86.957031 255.839844 85.929688 238.835938 C 85.953125 238.992188 85.972656 239.152344 85.996094 239.308594 C 85.054688 231.484375 84.738281 223.570312 84.390625 215.707031 C 83.996094 206.816406 83.648438 197.929688 83.042969 189.050781 C 82.515625 181.28125 81.800781 173.492188 81.433594 165.707031 L 37.367188 221.222656 L 75.484375 151.917969 C 75.03125 151.726562 74.582031 151.515625 74.144531 151.292969 C 51.800781 179.28125 29.472656 207.285156 7.1875 235.320312 L 6.9375 279.132812 C 6.789062 305.371094 28.054688 326.6875 54.265625 326.589844 L 319.011719 325.582031 C 344.75 325.488281 365.65625 304.75 365.980469 278.992188 L 368.800781 53.796875 C 368.808594 52.960938 368.796875 52.136719 368.765625 51.3125 C 365.015625 59.066406 361.285156 66.824219 357.359375 74.488281 Z M 357.359375 74.488281 " fill-opacity="0.18" fill-rule="nonzero"/><path fill="#fe5282" d="M 357.359375 74.488281 C 352.613281 83.761719 347.414062 92.753906 342.074219 101.679688 L 305.546875 209.835938 C 302.976562 217.453125 297.089844 223.5 289.546875 226.273438 L 271.378906 232.957031 C 264.859375 237.699219 257.992188 241.960938 251.082031 246.109375 C 223.28125 262.8125 193.503906 276.78125 162.402344 286.078125 C 145.023438 291.277344 124.71875 294.367188 108.457031 283.996094 C 93.453125 274.425781 86.957031 255.839844 85.929688 238.835938 C 85.953125 238.992188 85.972656 239.152344 85.996094 239.308594 C 85.054688 231.484375 84.738281 223.570312 84.390625 215.707031 C 83.996094 206.816406 83.648438 197.929688 83.042969 189.050781 C 82.515625 181.28125 81.800781 173.492188 81.433594 165.707031 L 37.367188 221.222656 L 75.484375 151.917969 C 75.03125 151.726562 74.582031 151.515625 74.144531 151.292969 C 51.800781 179.28125 29.472656 207.285156 7.1875 235.320312 L 6.9375 279.132812 C 6.789062 305.371094 28.054688 326.6875 54.265625 326.589844 L 319.011719 325.582031 C 344.75 325.488281 365.65625 304.75 365.980469 278.992188 L 368.800781 53.796875 C 368.808594 52.960938 368.796875 52.136719 368.765625 51.3125 C 365.015625 59.066406 361.285156 66.824219 357.359375 74.488281 Z M 357.359375 74.488281 " fill-opacity="0.51" fill-rule="nonzero"/><path fill="#fe5282" d="M 340.175781 166.613281 C 340.871094 164.957031 341.570312 163.304688 342.269531 161.648438 C 334.609375 179.90625 327.558594 198.589844 318.824219 216.359375 C 317.097656 219.875 315.25 223.332031 313.148438 226.636719 C 311.359375 229.457031 309.253906 232.824219 306.96875 235.132812 C 305.695312 236.421875 304.21875 237.46875 302.863281 238.664062 C 298.859375 242.199219 295.066406 245.894531 290.566406 248.863281 C 287.222656 251.070312 283.398438 252.722656 279.640625 254.261719 C 268.460938 259.550781 257.019531 263.4375 245.140625 266.839844 C 232.121094 270.574219 219.253906 274.878906 206.324219 278.90625 C 194.78125 282.5 183.25 286.125 171.730469 289.777344 C 159.75 293.578125 147.773438 297.417969 135.144531 298.285156 C 132.464844 298.46875 129.785156 298.421875 127.113281 298.15625 C 123.398438 297.78125 120.5 296.695312 117.015625 295.730469 C 112.234375 294.40625 107.347656 292.796875 103.097656 290.1875 C 94.492188 284.914062 87.808594 277.179688 82.03125 269.03125 C 76.746094 261.578125 73.109375 252.527344 70.816406 243.707031 C 68.261719 233.898438 67.058594 223.609375 67.066406 213.484375 C 67.074219 203.167969 67.667969 192.886719 68.046875 182.582031 L 37.375 221.226562 L 67.996094 165.546875 C 67.996094 165.507812 67.988281 165.460938 67.988281 165.40625 C 67.933594 165.125 67.808594 163.800781 67.75 163.511719 C 67.621094 162.851562 67.492188 162.195312 67.351562 161.539062 C 67.253906 161.089844 67.152344 160.640625 67.050781 160.191406 C 47.078125 185.21875 27.113281 210.257812 7.191406 235.324219 L 6.9375 279.136719 C 6.789062 305.375 28.054688 326.691406 54.269531 326.59375 L 319.011719 325.585938 C 344.753906 325.492188 365.660156 304.753906 365.984375 278.996094 L 368.238281 98.886719 C 358.964844 121.5 349.675781 144.105469 340.175781 166.617188 Z M 340.175781 166.613281 " fill-opacity="0.51" fill-rule="nonzero"/><path fill="#fe5282" d="M 362.429688 154.644531 C 351.964844 179.242188 339.617188 202.753906 322.253906 223.25 C 320.199219 225.675781 318.121094 228.136719 315.714844 230.214844 C 313.410156 232.207031 310.984375 234.054688 308.699219 236.0625 C 303.09375 240.992188 297.253906 245.714844 290.972656 249.765625 C 278.855469 257.582031 264.699219 262.382812 250.957031 266.5 C 240.066406 269.757812 228.988281 272.398438 217.96875 275.222656 C 214.085938 276.460938 210.207031 277.695312 206.316406 278.90625 C 194.773438 282.5 183.242188 286.125 171.722656 289.777344 C 159.742188 293.578125 147.765625 297.417969 135.136719 298.285156 C 132.457031 298.46875 129.777344 298.421875 127.105469 298.15625 C 123.390625 297.78125 120.492188 296.695312 117.007812 295.730469 C 112.226562 294.40625 107.339844 292.796875 103.089844 290.1875 C 99.925781 288.25 97.023438 285.976562 94.328125 283.472656 C 93.8125 283.167969 93.300781 282.851562 92.796875 282.515625 C 89.671875 280.433594 86.910156 277.996094 84.039062 275.632812 C 77.070312 270.257812 70.703125 264.441406 65.246094 257.4375 C 59.695312 250.3125 54.765625 243.003906 51.070312 234.734375 C 48.003906 227.882812 45.449219 220.851562 43.363281 213.667969 L 37.363281 221.226562 L 42.742188 211.445312 C 42.273438 209.757812 41.824219 208.066406 41.410156 206.359375 C 40.480469 202.546875 39.847656 198.683594 39.433594 194.800781 C 28.675781 208.300781 17.917969 221.808594 7.175781 235.320312 L 6.925781 279.132812 C 6.777344 305.371094 28.042969 326.691406 54.257812 326.589844 L 319 325.585938 C 344.738281 325.492188 365.644531 304.75 365.972656 278.996094 L 367.683594 142.238281 C 365.921875 146.375 364.175781 150.511719 362.417969 154.644531 Z M 362.429688 154.644531 " fill-opacity="0.51" fill-rule="nonzero"/><path fill="#fe5282" d="M 43.949219 215.597656 C 43.753906 214.957031 43.554688 214.308594 43.367188 213.664062 L 42.875 214.285156 C 43.230469 214.726562 43.589844 215.160156 43.949219 215.597656 Z M 43.949219 215.597656 " fill-opacity="0.84" fill-rule="nonzero"/><path fill="#fe5282" d="M 40.847656 211.507812 C 41.195312 211.996094 41.554688 212.480469 41.90625 212.96875 L 42.746094 211.441406 C 42.28125 209.753906 41.832031 208.0625 41.417969 206.355469 C 40.488281 202.539062 39.855469 198.679688 39.441406 194.796875 C 37.757812 196.914062 36.074219 199.03125 34.382812 201.148438 C 36.28125 204.753906 38.496094 208.175781 40.847656 211.507812 Z M 40.847656 211.507812 " fill-opacity="0.84" fill-rule="nonzero"/><path fill="#d96ce2" d="M 355.9375 212.5625 C 349.1875 220.5625 342.238281 227.925781 333.664062 233.980469 C 323.464844 241.96875 313.375 250.011719 302.542969 257.183594 C 291.835938 264.273438 280.578125 270.535156 268.898438 275.875 C 245.136719 286.734375 220.050781 294.988281 194.132812 298.636719 C 178.972656 300.769531 163.765625 301.835938 148.457031 300.910156 C 133.285156 299.988281 118.136719 297.441406 103.472656 293.433594 C 77.453125 286.320312 53.878906 272.304688 35.230469 252.769531 C 27.421875 244.589844 20.457031 235.527344 14.847656 225.691406 C 12.292969 228.902344 9.734375 232.105469 7.183594 235.316406 L 6.933594 279.128906 C 6.785156 305.367188 28.050781 326.683594 54.265625 326.585938 L 319.007812 325.582031 C 344.746094 325.488281 365.652344 304.746094 365.980469 278.988281 L 366.984375 198.660156 C 363.441406 203.40625 359.746094 208.042969 355.9375 212.558594 Z M 355.9375 212.5625 " fill-opacity="0.15" fill-rule="nonzero"/><path fill="#d96ce2" d="M 318.890625 262.96875 C 293.53125 281.34375 264.390625 295.066406 234.226562 303.402344 C 216.859375 308.203125 198.703125 311.289062 180.722656 312.355469 C 162.589844 313.429688 144.558594 312.144531 126.601562 309.628906 C 110.121094 307.316406 93.765625 303.503906 78.183594 297.613281 C 61.878906 291.449219 46.273438 284.164062 32.984375 272.671875 C 26.894531 267.410156 21.816406 260.621094 18.105469 253.480469 C 16.074219 249.578125 15.234375 245.566406 13.871094 241.476562 C 12.621094 237.707031 11.839844 233.738281 11.605469 229.769531 C 10.132812 231.617188 8.660156 233.46875 7.191406 235.320312 L 6.9375 279.128906 C 6.789062 305.371094 28.054688 326.6875 54.269531 326.589844 L 319.011719 325.582031 C 344.753906 325.488281 365.660156 304.75 365.984375 278.992188 L 366.726562 219.703125 C 352.632812 236.011719 336.214844 250.414062 318.890625 262.96875 Z M 318.890625 262.96875 " fill-opacity="0.15" fill-rule="nonzero"/><path fill="#d96ce2" d="M 364.269531 251.765625 C 351.804688 259.839844 338.8125 267.089844 325.414062 273.492188 C 317.613281 277.222656 309.722656 280.730469 301.753906 284.082031 C 294.835938 286.988281 287.636719 289.0625 280.632812 291.714844 C 266.785156 296.957031 252.679688 300.816406 238.347656 304.445312 C 231.152344 306.269531 223.941406 307.28125 216.640625 308.511719 C 207.894531 309.984375 199.175781 311.371094 190.335938 312.195312 C 175.652344 313.566406 160.980469 314.128906 146.238281 313.457031 C 130.011719 312.714844 114.035156 310.660156 98.121094 307.425781 C 82.996094 304.355469 67.578125 300.625 53.25 294.820312 C 36.6875 288.109375 21.1875 278.761719 10.019531 264.492188 C 9.027344 263.226562 8.023438 261.945312 7.042969 260.644531 L 6.9375 279.128906 C 6.789062 305.367188 28.054688 326.683594 54.265625 326.585938 L 319.011719 325.582031 C 344.75 325.488281 365.65625 304.746094 365.980469 278.992188 L 366.339844 250.40625 C 365.648438 250.863281 364.957031 251.3125 364.265625 251.761719 Z M 364.269531 251.765625 " fill-opacity="0.15" fill-rule="nonzero"/><path fill="#d96ce2" d="M 343.304688 291.984375 C 316.320312 302.832031 288.351562 310.054688 259.816406 315.460938 C 230.167969 321.078125 199.625 324.386719 169.421875 323.605469 C 139.3125 322.820312 109.101562 319.371094 79.660156 312.980469 C 65.410156 309.886719 51.4375 306.050781 37.761719 300.972656 C 30.988281 298.457031 24.296875 295.722656 17.609375 292.992188 C 14.359375 291.667969 11.125 290.300781 7.898438 288.910156 C 12.308594 310.464844 31.40625 326.671875 54.273438 326.585938 L 319.015625 325.582031 C 343.636719 325.492188 363.820312 306.503906 365.816406 282.308594 C 358.378906 285.726562 350.859375 288.941406 343.308594 291.976562 Z M 343.304688 291.984375 " fill-opacity="0.15" fill-rule="nonzero"/><path fill="#ffc800" d="M 321.640625 6.015625 L 55.367188 6.09375 C 29.4375 6.105469 8.378906 27.066406 8.226562 53.011719 L 6.9375 279.128906 C 6.910156 283.488281 7.480469 287.707031 8.558594 291.714844 C 14.332031 265.683594 24.441406 240.640625 37.511719 217.410156 C 43.140625 207.410156 49.191406 197.714844 55.523438 188.214844 L 126.914062 58.410156 C 130.640625 51.636719 139.355469 49.496094 145.789062 53.78125 L 299.582031 156.195312 C 303.46875 149.167969 307.332031 142.125 311.246094 135.109375 C 326.328125 108.066406 341.941406 81.3125 357.15625 54.339844 C 360.207031 48.933594 363.257812 43.53125 366.320312 38.128906 C 360.039062 19.480469 342.433594 6.015625 321.640625 6.019531 Z M 321.640625 6.015625 " fill-opacity="0.24" fill-rule="nonzero"/><path fill="#ffc800" d="M 357.742188 29.933594 C 357.730469 28.355469 357.5625 26.78125 357.449219 25.207031 C 357.394531 24.425781 357.320312 23.640625 357.332031 22.855469 C 357.332031 22.65625 357.335938 22.511719 357.339844 22.386719 C 348.703125 12.363281 335.925781 6.011719 321.644531 6.015625 L 55.367188 6.089844 C 29.441406 6.101562 8.378906 27.0625 8.230469 53.007812 L 6.96875 273.894531 C 7.453125 272.972656 7.9375 272.050781 8.433594 271.132812 C 15.515625 257.996094 22.691406 244.910156 29.90625 231.839844 C 32.316406 226.957031 34.851562 222.144531 37.515625 217.40625 C 39.714844 213.503906 41.980469 209.648438 44.296875 205.828125 C 49.828125 195.832031 55.359375 185.835938 60.851562 175.824219 C 69.492188 160.074219 78.390625 144.460938 87.003906 128.699219 C 91.40625 120.644531 95.757812 112.566406 100.1875 104.527344 C 104.109375 97.40625 108.015625 89.386719 113.363281 83.058594 L 126.917969 58.410156 C 128.625 55.304688 131.382812 53.175781 134.488281 52.191406 C 136.25 50.839844 138.566406 50.226562 141.179688 51.003906 C 146 52.441406 150.683594 55.273438 155.191406 57.5 C 159.476562 59.617188 163.683594 61.890625 167.90625 64.128906 C 176.351562 68.605469 184.757812 73.15625 193.117188 77.785156 C 222.96875 94.304688 252.234375 111.851562 280.867188 130.402344 C 287.707031 134.832031 294.492188 139.355469 301.222656 143.953125 C 301.558594 143.195312 301.894531 142.4375 302.246094 141.691406 C 305.6875 134.4375 309.757812 127.503906 314.074219 120.742188 C 322.019531 108.300781 330.570312 96.273438 338.519531 83.835938 C 342.316406 77.902344 345.871094 71.757812 348.84375 65.367188 C 349.289062 64.402344 349.71875 63.429688 350.144531 62.453125 C 350.289062 62.097656 350.792969 60.894531 350.832031 60.792969 C 351.414062 59.320312 351.960938 57.835938 352.492188 56.347656 C 353.660156 53.054688 354.679688 49.722656 355.5 46.328125 C 355.921875 44.582031 356.339844 42.835938 356.691406 41.078125 C 356.84375 40.308594 356.984375 39.539062 357.113281 38.769531 C 357.140625 38.609375 357.152344 38.394531 357.160156 38.183594 C 357.113281 36.449219 357.195312 37.34375 357.160156 38.183594 C 357.164062 38.300781 357.167969 38.421875 357.171875 38.5625 C 357.082031 35.726562 357.773438 32.800781 357.75 29.929688 Z M 357.742188 29.933594 " fill-opacity="0.24" fill-rule="nonzero"/><path fill="#ffc800" d="M 357.742188 29.933594 C 357.730469 28.355469 357.5625 26.78125 357.449219 25.207031 C 357.394531 24.425781 357.320312 23.640625 357.332031 22.855469 C 357.332031 22.65625 357.335938 22.511719 357.339844 22.386719 C 348.703125 12.363281 335.925781 6.011719 321.644531 6.015625 L 55.367188 6.089844 C 29.441406 6.101562 8.378906 27.0625 8.230469 53.007812 L 7.035156 261.640625 C 9.75 256.441406 12.449219 251.234375 15.109375 246.007812 C 24.082031 228.402344 33.703125 211.152344 42.816406 193.628906 C 59.035156 162.445312 75.84375 131.554688 91.636719 100.148438 C 98.46875 86.570312 104.445312 72.320312 114.890625 61.007812 C 120.019531 55.449219 126.238281 51.113281 133.273438 48.355469 C 141.203125 45.238281 150.046875 45.191406 158.328125 46.738281 C 174.769531 49.804688 189.242188 60.566406 202.890625 69.589844 C 217.65625 79.347656 232.554688 88.890625 247.300781 98.675781 C 261.875 108.347656 276.394531 118.101562 290.917969 127.847656 C 295.4375 130.878906 300.054688 133.851562 304.652344 136.863281 C 307.527344 131.339844 310.71875 125.988281 314.070312 120.742188 C 322.015625 108.300781 330.5625 96.273438 338.511719 83.835938 C 342.308594 77.902344 345.867188 71.757812 348.835938 65.367188 C 349.285156 64.402344 349.714844 63.429688 350.140625 62.453125 C 350.285156 62.097656 350.785156 60.894531 350.828125 60.792969 C 351.40625 59.320312 351.957031 57.835938 352.488281 56.347656 C 353.65625 53.054688 354.675781 49.722656 355.496094 46.328125 C 355.917969 44.582031 356.335938 42.835938 356.6875 41.078125 C 356.839844 40.308594 356.980469 39.539062 357.105469 38.769531 C 357.132812 38.609375 357.148438 38.394531 357.15625 38.183594 C 357.105469 36.449219 357.1875 37.34375 357.15625 38.183594 C 357.160156 38.300781 357.164062 38.421875 357.167969 38.5625 C 357.078125 35.726562 357.769531 32.800781 357.742188 29.929688 Z M 357.742188 29.933594 " fill-opacity="0.24" fill-rule="nonzero"/><path fill="#ffc800" d="M 357.742188 29.933594 C 357.730469 28.355469 357.5625 26.78125 357.449219 25.207031 C 357.394531 24.425781 357.320312 23.640625 357.332031 22.855469 C 357.332031 22.65625 357.335938 22.511719 357.339844 22.386719 C 348.703125 12.363281 335.925781 6.011719 321.644531 6.015625 L 55.367188 6.089844 C 29.441406 6.101562 8.378906 27.0625 8.230469 53.007812 L 7.230469 227.648438 C 18.359375 203.839844 30.585938 180.574219 44.035156 157.894531 C 66.027344 120.804688 90.988281 85.582031 119.574219 53.289062 C 122.367188 50.136719 126.828125 48.902344 130.96875 49.335938 C 131.726562 48.992188 132.492188 48.664062 133.273438 48.359375 C 141.203125 45.242188 150.046875 45.195312 158.328125 46.742188 C 174.769531 49.808594 189.242188 60.574219 202.890625 69.59375 C 217.65625 79.351562 232.554688 88.894531 247.300781 98.679688 C 261.875 108.355469 276.394531 118.105469 290.917969 127.855469 C 295.4375 130.886719 300.054688 133.855469 304.652344 136.871094 C 307.527344 131.347656 310.71875 125.992188 314.070312 120.746094 C 322.015625 108.308594 330.5625 96.277344 338.511719 83.839844 C 342.308594 77.90625 345.867188 71.765625 348.835938 65.371094 C 349.285156 64.40625 349.714844 63.433594 350.140625 62.457031 C 350.285156 62.101562 350.785156 60.902344 350.828125 60.796875 C 351.40625 59.328125 351.957031 57.839844 352.488281 56.351562 C 353.65625 53.0625 354.675781 49.726562 355.496094 46.332031 C 355.917969 44.585938 356.335938 42.839844 356.6875 41.082031 C 356.839844 40.316406 356.980469 39.546875 357.105469 38.773438 C 357.132812 38.613281 357.148438 38.402344 357.15625 38.1875 C 357.105469 36.453125 357.1875 37.347656 357.15625 38.1875 C 357.160156 38.304688 357.164062 38.425781 357.167969 38.570312 C 357.078125 35.730469 357.769531 32.804688 357.742188 29.933594 Z M 357.742188 29.933594 " fill-opacity="0.24" fill-rule="nonzero"/><path fill="#ffc800" d="M 62.242188 118.074219 C 65.355469 113.695312 68.523438 109.359375 71.71875 105.046875 C 68.582031 108.371094 65.578125 111.824219 62.71875 115.394531 C 57.242188 122.746094 52.367188 130.515625 48.078125 138.605469 C 52.703125 131.695312 57.417969 124.851562 62.242188 118.074219 Z M 62.242188 118.074219 " fill-opacity="0.24" fill-rule="nonzero"/><path fill="#ffc800" d="M 54.941406 64.683594 C 69.648438 52 85.925781 42.296875 104.300781 35.9375 C 122.820312 29.527344 143.21875 27.339844 162.71875 29.023438 C 203.121094 32.511719 241.320312 48.828125 274.78125 71.28125 C 291.4375 82.457031 307.207031 94.847656 322.773438 107.515625 C 328.054688 99.644531 333.40625 91.828125 338.511719 83.839844 C 342.308594 77.90625 345.867188 71.765625 348.835938 65.371094 C 349.285156 64.40625 349.714844 63.433594 350.140625 62.457031 C 350.285156 62.101562 350.785156 60.902344 350.828125 60.796875 C 351.40625 59.328125 351.957031 57.839844 352.488281 56.351562 C 353.65625 53.0625 354.675781 49.726562 355.496094 46.332031 C 355.917969 44.585938 356.335938 42.839844 356.6875 41.082031 C 356.839844 40.316406 356.980469 39.546875 357.105469 38.773438 C 357.132812 38.613281 357.148438 38.402344 357.15625 38.1875 C 357.105469 36.453125 357.1875 37.347656 357.15625 38.1875 C 357.160156 38.304688 357.164062 38.425781 357.167969 38.570312 C 357.078125 35.730469 357.769531 32.804688 357.742188 29.933594 C 357.730469 28.355469 357.5625 26.785156 357.449219 25.210938 C 357.394531 24.429688 357.320312 23.644531 357.332031 22.859375 C 357.332031 22.660156 357.335938 22.511719 357.339844 22.390625 C 348.703125 12.367188 335.925781 6.011719 321.644531 6.015625 L 55.367188 6.09375 C 29.441406 6.105469 8.378906 27.066406 8.230469 53.011719 L 7.777344 131.941406 C 18.496094 106.449219 34.054688 82.695312 54.945312 64.683594 Z M 54.941406 64.683594 " fill-opacity="0.24" fill-rule="nonzero"/><path fill="#ffc800" d="M 334.796875 78.785156 C 339.21875 67.421875 342.769531 55.71875 344.730469 43.664062 C 345.105469 39.855469 345.195312 36.0625 344.902344 32.25 C 344.597656 30.699219 344.210938 29.191406 343.710938 27.6875 C 342.386719 25.039062 340.828125 22.527344 339.105469 20.121094 C 337.769531 18.539062 336.363281 17.023438 334.863281 15.59375 C 334.070312 14.835938 333.253906 14.105469 332.417969 13.394531 C 332.058594 13.167969 331.429688 12.726562 331.054688 12.390625 C 327.480469 9.980469 323.644531 7.875 319.746094 6.019531 L 55.367188 6.097656 C 29.4375 6.105469 8.378906 27.070312 8.226562 53.015625 L 8.152344 66.042969 C 16.214844 54.519531 25.769531 44.097656 36.886719 35.375 C 36.59375 35.59375 36.304688 35.8125 36.011719 36.035156 L 37.703125 34.730469 C 37.429688 34.941406 37.160156 35.160156 36.890625 35.375 C 50.5625 25.121094 65.957031 16.957031 82.855469 13.527344 C 92.332031 11.601562 102.164062 10.445312 111.851562 10.53125 C 120.929688 10.609375 129.953125 11.621094 138.945312 12.828125 C 140.675781 13.058594 142.398438 13.3125 144.121094 13.578125 C 150.25 14.097656 156.363281 14.761719 162.472656 15.59375 C 201.917969 20.960938 240.371094 31.816406 276.78125 47.910156 C 294.410156 55.707031 311.628906 64.699219 328.15625 74.621094 C 330.394531 75.960938 332.605469 77.359375 334.800781 78.789062 Z M 334.796875 78.785156 " fill-opacity="0.24" fill-rule="nonzero"/><path fill="#ffc800" d="M 45.859375 27.523438 C 42.851562 29.390625 43.910156 28.503906 45.046875 27.894531 C 44.757812 28.011719 44.46875 28.121094 44.226562 28.226562 C 43.070312 28.75 41.917969 29.285156 40.777344 29.839844 C 38.5 30.953125 36.261719 32.152344 34.0625 33.414062 C 31.515625 34.875 29.015625 36.429688 26.570312 38.054688 C 25.621094 38.683594 24.683594 39.332031 23.757812 40.003906 C 23.535156 40.164062 23.316406 40.324219 23.097656 40.484375 C 19.449219 43.554688 15.804688 46.5625 12.507812 50.027344 C 11.324219 51.269531 10.261719 52.640625 9.148438 53.953125 C 9.046875 54.113281 8.769531 54.449219 8.21875 55.03125 L 8.152344 66.042969 C 16.214844 54.515625 25.769531 44.09375 36.886719 35.371094 C 36.59375 35.589844 36.304688 35.8125 36.011719 36.03125 L 37.703125 34.726562 C 37.429688 34.941406 37.160156 35.15625 36.890625 35.371094 C 42.085938 31.476562 47.527344 27.886719 53.203125 24.738281 C 50.738281 25.621094 48.292969 26.550781 45.863281 27.523438 Z M 45.859375 27.523438 " fill-opacity="0.24" fill-rule="nonzero"/><path fill="#ffc800" d="M 343.710938 27.6875 C 342.386719 25.039062 340.828125 22.527344 339.105469 20.121094 C 338.757812 19.710938 338.40625 19.304688 338.050781 18.902344 C 303.117188 15.3125 268.117188 12.644531 232.984375 11.539062 C 209.648438 10.808594 186.367188 10.027344 163.011719 10.503906 C 151.898438 10.730469 140.734375 11.058594 129.589844 11.675781 C 132.710938 12.015625 135.824219 12.40625 138.9375 12.824219 C 140.667969 13.058594 142.390625 13.3125 144.113281 13.574219 C 150.242188 14.097656 156.355469 14.757812 162.464844 15.589844 C 201.910156 20.957031 240.367188 31.8125 276.773438 47.90625 C 294.402344 55.703125 311.621094 64.695312 328.148438 74.617188 C 330.386719 75.960938 332.601562 77.355469 334.792969 78.785156 C 339.214844 67.421875 342.761719 55.71875 344.726562 43.664062 C 345.101562 39.855469 345.1875 36.0625 344.898438 32.25 C 344.59375 30.699219 344.207031 29.191406 343.703125 27.6875 Z M 343.710938 27.6875 " fill-opacity="0.24" fill-rule="nonzero"/><path fill="#ffc800" d="M 29.910156 14.347656 C 33.277344 12.035156 36.878906 10.101562 40.621094 8.46875 C 29.554688 12.113281 20.304688 19.75 14.558594 29.679688 C 18.65625 23.785156 23.691406 18.621094 29.910156 14.347656 Z M 29.910156 14.347656 " fill-opacity="0.9" fill-rule="nonzero"/><path fill="#ffc800" d="M 82.234375 15.613281 C 140.953125 13.707031 199.71875 11.808594 258.441406 13.621094 C 277.53125 14.210938 296.828125 15.234375 315.132812 20.683594 C 323.570312 23.199219 332.621094 27.535156 335.503906 35.859375 C 337.5625 41.808594 335.917969 48.347656 334.054688 54.359375 C 325.128906 83.140625 311.292969 110.390625 293.320312 134.574219 C 300.707031 123.1875 298.707031 107.582031 291.574219 96.039062 C 284.441406 84.496094 273.042969 76.296875 261.472656 69.214844 C 205.808594 35.148438 139.851562 20.289062 82.234375 15.613281 Z M 82.234375 15.613281 " fill-opacity="0.34" fill-rule="nonzero"/><path fill="#ffc800" d="M 139.582031 12.316406 C 113.433594 12.730469 86.863281 13.214844 61.898438 21.011719 C 54.023438 23.46875 46.097656 26.832031 40.574219 32.960938 C 31.867188 42.625 30.980469 56.808594 30.546875 69.816406 C 28.992188 116.441406 27.433594 163.0625 25.878906 209.6875 C 31.296875 165.152344 49.328125 123.03125 71.34375 83.949219 C 79.824219 68.886719 89.027344 54.03125 101.085938 41.648438 C 113.140625 29.265625 128.34375 19.398438 139.582031 12.316406 Z M 139.582031 12.316406 " fill-opacity="0.34" fill-rule="nonzero"/><path fill="#ffffff" d="M 336.769531 10.242188 C 275.429688 7.488281 213.992188 10.574219 152.667969 13.660156 C 141.632812 14.21875 130.539062 14.78125 119.730469 17.074219 C 116.246094 17.816406 112.265625 19.210938 111.191406 22.609375 C 110.175781 25.816406 112.472656 29.308594 115.464844 30.839844 C 118.457031 32.371094 121.949219 32.453125 125.308594 32.59375 C 184.671875 35.117188 241.695312 69.792969 271.273438 121.355469 C 273.886719 125.910156 276.332031 130.636719 279.902344 134.484375 C 283.472656 138.332031 288.421875 141.269531 293.664062 141.078125 C 302.453125 140.757812 308.464844 132.386719 313.058594 124.886719 C 325.804688 104.089844 338.554688 83.292969 351.300781 62.492188 C 355.957031 54.890625 360.761719 46.828125 361.027344 37.914062 C 361.355469 26.933594 354.8125 11.050781 336.765625 10.242188 Z M 336.769531 10.242188 " fill-opacity="0.15" fill-rule="nonzero"/><path fill="#ffffff" d="M 157.542969 10.675781 C 132.984375 11.640625 108.421875 12.601562 83.855469 13.5625 C 74.101562 13.941406 64.238281 14.339844 54.847656 17.003906 C 45.453125 19.667969 36.433594 24.859375 31.054688 33.015625 C 24.40625 43.101562 24.222656 55.980469 24.265625 68.0625 C 24.363281 96.863281 24.460938 125.664062 24.5625 154.464844 C 24.582031 159.320312 25.230469 165.21875 29.652344 167.226562 C 32.3125 168.4375 35.542969 167.65625 37.929688 165.96875 C 40.316406 164.28125 42.023438 161.816406 43.628906 159.375 C 55.40625 141.46875 64.472656 121.957031 74.214844 102.867188 C 83.957031 83.78125 94.535156 64.875 108.839844 48.921875 C 123.144531 32.96875 141.5625 20.019531 157.542969 10.671875 Z M 157.542969 10.675781 " fill-opacity="0.14" fill-rule="nonzero"/><path fill="#ffffff" d="M 24.5625 154.46875 C 24.582031 159.320312 25.230469 165.222656 29.652344 167.230469 C 29.753906 167.277344 29.859375 167.316406 29.964844 167.355469 C 30.335938 166.199219 30.710938 165.042969 31.101562 163.886719 C 45.355469 121.707031 69.433594 82.289062 101.664062 51.460938 C 117.34375 36.460938 134.828125 23.09375 153.648438 12.289062 C 154.578125 11.757812 155.511719 11.238281 156.449219 10.71875 L 83.855469 13.5625 C 74.101562 13.941406 64.238281 14.339844 54.847656 17.003906 C 45.453125 19.667969 36.433594 24.859375 31.054688 33.015625 C 24.40625 43.101562 24.222656 55.980469 24.265625 68.0625 C 24.363281 96.863281 24.460938 125.664062 24.5625 154.464844 Z M 24.5625 154.46875 " fill-opacity="0.38" fill-rule="nonzero"/><path fill="#ffffff" d="M 186.101562 10.007812 C 144.605469 10.582031 102.910156 11.171875 62.003906 18.160156 C 50.523438 20.121094 37.914062 23.382812 31.644531 33.199219 C 26.640625 41.03125 27.03125 51.023438 27.757812 60.285156 C 29.859375 87.109375 33.386719 114.074219 42.496094 139.386719 C 43.464844 142.078125 44.691406 144.96875 47.222656 146.289062 C 49.714844 147.585938 52.871094 146.929688 55.1875 145.339844 C 57.503906 143.75 59.144531 141.375 60.667969 139.011719 C 79.273438 110.089844 88.046875 74.449219 112.636719 50.417969 C 134.6875 28.871094 165.894531 20.175781 186.101562 10.007812 Z M 186.101562 10.007812 " fill-opacity="0.06" fill-rule="nonzero"/><path fill="#ffffff" d="M 157.171875 9.378906 C 132.234375 11.804688 107.292969 14.230469 82.355469 16.65625 C 68.972656 17.960938 54.949219 19.484375 43.871094 27.109375 C 33.453125 34.273438 26.964844 46.101562 23.765625 58.335938 C 20.566406 70.578125 20.320312 83.367188 20.085938 96.015625 C 19.304688 138.8125 18.523438 181.605469 19.878906 225.664062 C 22.128906 191.46875 35.085938 158.957031 49.140625 127.707031 C 60.59375 102.25 73.03125 76.925781 90.492188 55.152344 C 107.949219 33.375 130.953125 15.175781 157.171875 9.378906 Z M 157.171875 9.378906 " fill-opacity="0.34" fill-rule="nonzero"/><path fill="#ffffff" d="M 65.285156 36.347656 C 77.765625 25.136719 91.242188 15.226562 105.816406 7.554688 C 92.859375 8.917969 79.90625 10.28125 66.949219 11.648438 C 55.554688 12.84375 43.617188 14.253906 34.183594 21.273438 C 25.3125 27.875 19.789062 38.769531 17.066406 50.042969 C 14.34375 61.320312 14.132812 73.101562 13.933594 84.753906 C 13.769531 94.496094 13.605469 104.238281 13.46875 114 C 24.933594 84.230469 42.546875 56.773438 65.285156 36.347656 Z M 65.285156 36.347656 " fill-opacity="0.65" fill-rule="nonzero"/><path fill="#e94523" d="M 7.582031 279.21875 C 7.390625 250.6875 7.359375 221.265625 18.257812 194.902344 C 25.066406 178.425781 35.847656 163.933594 46.941406 149.984375 C 70.261719 120.644531 95.46875 92.8125 122.355469 66.703125 C 105.472656 97.410156 87.210938 127.355469 67.632812 156.417969 C 55.355469 174.640625 42.539062 192.554688 31.835938 211.746094 C 21.132812 230.9375 12.527344 251.589844 7.585938 279.21875 Z M 7.582031 279.21875 " fill-opacity="0.34" fill-rule="nonzero"/><path fill="#e94523" d="M 15.921875 245.191406 C 46.550781 188.28125 78.890625 132.296875 112.890625 77.339844 C 100.066406 96.003906 87.238281 114.671875 74.417969 133.339844 C 64.558594 147.6875 54.6875 162.054688 46.050781 177.171875 C 32.09375 201.597656 21.390625 228.023438 15.921875 245.191406 Z M 15.921875 245.191406 " fill-opacity="1" fill-rule="nonzero"/><path fill="#ffc800" d="M 347.515625 186.816406 C 330.6875 218.960938 306.671875 247.347656 275.507812 266.324219 C 244.574219 285.160156 208.507812 293.8125 173.152344 299.773438 C 164.535156 301.226562 155.886719 302.464844 147.273438 303.949219 C 137.855469 305.570312 128.371094 307.113281 118.835938 307.820312 C 109.285156 308.527344 99.84375 308.308594 90.425781 306.339844 C 80.140625 304.191406 71.054688 299.246094 63.003906 292.625 C 56.304688 287.121094 50.746094 279.660156 46.855469 271.933594 C 42.179688 262.65625 39.957031 253.5 38.726562 243.257812 C 38.332031 240 38.164062 236.757812 38.167969 233.523438 C 30.230469 248.480469 24.328125 264.519531 20.746094 281.070312 C 18.710938 290.472656 17.707031 301.246094 23.621094 308.828125 C 29.636719 316.535156 40.496094 318.070312 50.230469 318.910156 C 132.851562 326.03125 215.972656 325.6875 298.800781 321.65625 C 313.695312 320.933594 329.847656 319.589844 340.917969 309.59375 C 354.027344 297.773438 355.5625 278.085938 356.191406 260.4375 C 357.367188 227.625 358.535156 194.8125 359.019531 162.355469 C 355.527344 170.644531 351.707031 178.804688 347.515625 186.8125 Z M 347.515625 186.816406 " fill-opacity="0.16" fill-rule="nonzero"/><path fill="#ffffff" d="M 352.261719 100.109375 C 343.714844 122.394531 339.660156 146.105469 333.277344 169.101562 C 326.894531 192.101562 317.742188 215.117188 301.058594 232.171875 C 286.125 247.4375 266.300781 256.800781 246.636719 265.101562 C 201.078125 284.339844 153.863281 299.636719 105.683594 310.765625 C 164.359375 313.121094 223.035156 315.480469 281.710938 317.835938 C 300.949219 318.609375 321.976562 318.84375 337.1875 307.027344 C 347.089844 299.332031 353.023438 287.421875 355.84375 275.195312 C 358.664062 262.972656 358.664062 250.296875 358.652344 237.75 C 358.589844 179.617188 358.53125 121.488281 358.46875 63.351562 C 356.90625 70.792969 360.171875 79.484375 352.261719 100.105469 Z M 352.261719 100.109375 " fill-opacity="0.2" fill-rule="nonzero"/><path fill="#ffffff" d="M 284.828125 234.496094 C 237.527344 254.78125 189.746094 275.210938 139.152344 284.621094 C 127.148438 286.855469 113.746094 288.183594 103.648438 281.320312 C 95.074219 275.488281 90.957031 265.058594 88.382812 255.011719 C 81.914062 229.75 82.1875 203.320312 81.722656 176.585938 C 63.707031 194.886719 47.945312 215.398438 34.902344 237.519531 C 28.945312 247.625 23.476562 258.277344 21.441406 269.832031 C 19.402344 281.386719 21.199219 294.078125 28.550781 303.21875 C 38.128906 315.128906 54.777344 318.644531 70.054688 318.726562 C 96.015625 318.867188 121.398438 311.449219 145.941406 302.96875 C 196.527344 285.488281 245.457031 263.214844 284.828125 234.492188 Z M 284.828125 234.496094 " fill-opacity="0.34" fill-rule="nonzero"/><path fill="#ffffff" d="M 243.957031 287.449219 C 277.476562 270.675781 305.28125 242.707031 321.875 209.082031 C 332.023438 188.515625 337.992188 166.164062 343.203125 143.828125 C 351.046875 110.253906 357.332031 76.3125 362.035156 42.15625 C 366.8125 118.117188 364.835938 194.40625 358.789062 270.277344 C 357.828125 282.34375 356.492188 295.125 349.136719 304.734375 C 342.890625 312.886719 333 317.621094 322.933594 319.628906 C 312.863281 321.640625 302.488281 321.207031 292.230469 320.761719 C 255.425781 319.175781 218.625 317.585938 181.820312 315.996094 C 201.445312 310.136719 219.132812 299.875 243.957031 287.453125 Z M 243.957031 287.449219 " fill-opacity="0.27" fill-rule="nonzero"/><path fill="#d96ce2" d="M 352.34375 199.574219 C 344.503906 224.722656 333.273438 249.121094 316.570312 269.632812 C 308.40625 279.660156 298.472656 287.8125 287.882812 295.160156 C 277.351562 302.460938 266.703125 309.101562 254.804688 313.972656 C 250.539062 315.71875 246.210938 317.246094 241.828125 318.585938 C 258.628906 319.308594 275.429688 320.035156 292.230469 320.761719 C 302.488281 321.203125 312.867188 321.636719 322.933594 319.628906 C 333.003906 317.617188 342.894531 312.886719 349.136719 304.730469 C 356.492188 295.121094 357.828125 282.339844 358.789062 270.273438 C 362.230469 227.160156 364.347656 183.90625 364.664062 140.652344 C 361.890625 160.554688 358.320312 180.414062 352.34375 199.574219 Z M 352.34375 199.574219 " fill-opacity="0.27" fill-rule="nonzero"/><path fill="#e94523" d="M 170 309.054688 C 172.742188 308.257812 175.496094 307.457031 178.15625 306.421875 C 179.496094 305.898438 180.824219 305.359375 182.15625 304.820312 C 182.222656 304.792969 182.28125 304.769531 182.339844 304.746094 C 182.773438 304.558594 183.210938 304.371094 183.644531 304.179688 C 184.722656 303.703125 185.796875 303.222656 186.871094 302.730469 C 171.449219 305.425781 155.808594 307.316406 140.402344 309.117188 C 148.710938 309.488281 156.925781 309.9375 165.058594 310.425781 C 166.710938 309.984375 168.359375 309.535156 170 309.054688 Z M 170 309.054688 " fill-opacity="0.53" fill-rule="nonzero"/><path fill="#e94523" d="M 357.433594 60.136719 C 348.449219 104.261719 334.824219 147.441406 316.855469 188.730469 C 309.222656 206.273438 300.351562 224.058594 285.515625 236.128906 C 266.410156 251.671875 240.667969 255.300781 216.875 261.65625 C 186.625 269.738281 157.449219 283.09375 126.234375 285.535156 C 112.722656 286.59375 96.375 283.8125 90.910156 271.398438 C 91.492188 287.464844 105.496094 300.511719 120.851562 305.238281 C 136.207031 309.964844 152.710938 308.1875 168.675781 306.367188 C 207.472656 301.945312 246.269531 297.519531 285.066406 293.09375 C 298.183594 291.601562 311.964844 289.851562 322.605469 282.027344 C 339.769531 269.410156 343.253906 245.605469 345.332031 224.394531 C 351.515625 161.332031 357.695312 98.273438 363.882812 35.214844 C 361.1875 46.355469 358.003906 57.351562 357.433594 60.136719 Z M 357.433594 60.136719 " fill-opacity="0.34" fill-rule="nonzero"/><path fill="#e94523" d="M 14.035156 295.953125 C 11.023438 283.984375 16.230469 271.605469 21.773438 260.574219 C 38.519531 227.273438 59.515625 196.117188 84.097656 168.105469 C 82.914062 200.898438 81.746094 233.988281 87.53125 266.285156 C 89.738281 278.582031 93.226562 291.246094 101.714844 300.410156 C 113.878906 313.542969 133.25 316.507812 151.082031 318.003906 C 118.597656 323.160156 85.347656 323.476562 52.765625 318.945312 C 44.378906 317.777344 35.832031 316.222656 28.5 311.980469 C 21.167969 307.742188 15.132812 300.308594 14.035156 295.953125 Z M 14.035156 295.953125 " fill-opacity="0.3" fill-rule="nonzero"/><path fill="#ffffff" d="M 81.613281 169.863281 C 63.824219 194.023438 46.007812 218.226562 30.546875 243.941406 C 26.296875 251.007812 22.195312 258.265625 19.804688 266.164062 C 17.417969 274.0625 16.84375 282.734375 19.644531 290.496094 C 24.5625 304.132812 38.644531 312.238281 52.476562 316.550781 C 71.210938 322.394531 91.378906 317.601562 110.59375 313.601562 C 96.867188 308.054688 82.542969 307.738281 73.597656 295.933594 C 64.597656 284.0625 62.625 268.308594 62.8125 253.410156 C 63.15625 225.921875 69.867188 198.535156 81.609375 169.863281 Z M 81.613281 169.863281 " fill-opacity="0.39" fill-rule="nonzero"/><path fill="#e94523" d="M 352.785156 73.964844 C 342.09375 113.648438 330.335938 153.042969 317.539062 192.097656 C 314.152344 202.421875 310.425781 213.160156 302.5625 220.652344 C 296.34375 226.570312 288.148438 229.863281 280.164062 233.019531 C 225.933594 254.464844 174.261719 267.644531 120.03125 289.089844 C 173.941406 283.167969 225.300781 285.515625 279.210938 279.597656 C 292.988281 278.085938 307.554688 276.257812 318.449219 267.691406 C 334.28125 255.238281 337.402344 232.886719 339.328125 212.832031 C 343.664062 167.644531 348 122.453125 352.78125 73.960938 Z M 352.785156 73.964844 " fill-opacity="0.67" fill-rule="nonzero"/><path fill="#e94523" d="M 186.554688 277.53125 C 200.230469 275.441406 213.742188 272.363281 227.296875 269.632812 C 239.777344 267.113281 252.34375 264.691406 264.683594 261.535156 C 274.699219 258.976562 284.875 256.082031 294.527344 252.253906 C 298.101562 250.59375 301.484375 248.667969 304.710938 246.414062 C 305.902344 245.359375 306.984375 244.25 308.027344 243.035156 C 309.582031 240.921875 311.132812 238.808594 312.882812 236.835938 C 313.699219 235.910156 314.546875 235 315.378906 234.074219 C 315.75 233.476562 316.105469 232.875 316.453125 232.265625 C 317.425781 229.933594 318.472656 227.644531 319.691406 225.40625 C 322.183594 218.550781 324.011719 211.480469 325.4375 204.324219 C 325.214844 205.972656 324.992188 207.621094 324.773438 209.269531 C 326.167969 198.808594 327.941406 188.421875 329.519531 177.980469 C 330.957031 168.445312 333.273438 159.160156 335.144531 149.722656 C 337.089844 139.902344 338.5625 129.957031 340.84375 120.203125 C 344.023438 106.628906 347.484375 92.789062 352.238281 79.523438 C 352.421875 77.667969 352.605469 75.824219 352.785156 73.960938 C 342.09375 113.644531 330.339844 153.042969 317.539062 192.09375 C 314.15625 202.417969 310.429688 213.160156 302.5625 220.648438 C 296.347656 226.570312 288.148438 229.859375 280.167969 233.015625 C 238.074219 249.664062 195.980469 266.3125 153.882812 282.960938 C 164.738281 280.941406 175.65625 279.1875 186.5625 277.523438 Z M 186.554688 277.53125 " fill-opacity="0.67" fill-rule="nonzero"/><path fill="#e94523" d="M 83.832031 163.738281 C 77.878906 180.074219 71.90625 196.472656 68.269531 213.472656 C 64.632812 230.472656 63.382812 248.214844 66.921875 265.238281 C 69.480469 277.523438 75.164062 290.042969 85.953125 296.4375 C 92.316406 300.210938 99.941406 301.496094 107.320312 301.027344 C 114.703125 300.566406 121.886719 298.4375 128.789062 295.773438 C 141.195312 290.984375 152.910156 284.40625 163.460938 276.304688 C 154.367188 277.832031 142.898438 283.992188 133.808594 285.519531 C 122.929688 287.347656 113.132812 284.269531 104.109375 277.921875 C 96.566406 272.617188 93.304688 263.132812 91.242188 254.140625 C 84.664062 225.457031 85.628906 195.652344 83.832031 163.734375 Z M 83.832031 163.738281 " fill-opacity="0.34" fill-rule="nonzero"/><path fill="#e94523" d="M 50.242188 323.4375 C 38.078125 323.050781 26.960938 314.816406 21.308594 304.03125 C 15.652344 293.25 14.980469 280.339844 17.527344 268.429688 C 20.074219 256.519531 25.628906 245.464844 31.921875 235.039062 C 46.769531 210.429688 65.875 188.714844 85.019531 167.28125 C 70.875 189.3125 59.222656 212.941406 50.351562 237.578125 C 44.203125 254.640625 39.453125 273.792969 46.351562 290.5625 C 51.15625 302.25 61.246094 311.257812 72.707031 316.5625 C 84.167969 321.871094 96.941406 323.765625 109.566406 324.105469 C 88.582031 325.480469 67.503906 323.992188 50.242188 323.445312 Z M 50.242188 323.4375 " fill-opacity="0.54" fill-rule="nonzero"/><path fill="#e94523" d="M 59.929688 325.117188 C 131.789062 327.296875 203.703125 327.789062 275.585938 326.59375 C 297.730469 326.226562 320.105469 325.667969 341.5625 320.167969 C 284.585938 322.574219 227.421875 320.625 170.742188 314.34375 C 193.109375 307.367188 214.125 296.070312 232.289062 281.257812 C 195.46875 298.003906 155.257812 307.257812 114.382812 307.570312 C 121.882812 311.210938 130.304688 312.929688 138.628906 312.519531 C 106.320312 319.429688 73.421875 323.570312 40.410156 324.898438 " fill-opacity="0.34" fill-rule="nonzero"/><path fill="#ffffff" d="M 356.039062 85.082031 C 348.71875 112.746094 345.011719 141.28125 337.28125 168.832031 C 329.550781 196.378906 317.222656 223.609375 295.953125 242.738281 C 279.644531 257.40625 259.144531 266.398438 238.984375 275.023438 C 200.15625 291.636719 161.132812 307.792969 122.113281 323.949219 C 157.359375 324.273438 192.609375 324.125 227.847656 323.511719 C 260.277344 322.941406 292.984375 321.945312 324.503906 314.285156 C 335.1875 311.691406 346.230469 307.996094 353.558594 299.792969 C 364.136719 287.953125 364.101562 270.328125 363.472656 254.457031 C 361.28125 199.175781 359.09375 143.894531 356.039062 85.085938 Z M 356.039062 85.082031 " fill-opacity="0.34" fill-rule="nonzero"/><path fill="#ffffff" d="M 252.914062 314.824219 C 279.042969 304.554688 300.9375 285.140625 317.316406 262.320312 C 333.695312 239.503906 344.878906 213.339844 353.660156 186.652344 C 355.296875 213.3125 356.925781 240.003906 356.503906 266.707031 C 356.367188 275.441406 355.890625 284.585938 351.445312 292.101562 C 344.914062 303.140625 331.554688 307.933594 319.023438 310.660156 C 295.738281 315.71875 271.761719 316.484375 252.914062 314.824219 Z M 252.914062 314.824219 " fill-opacity="0.26" fill-rule="nonzero"/><path fill="#ffffff" d="M 354.300781 197.183594 C 354.265625 201.878906 354.191406 206.570312 353.980469 211.261719 C 352.550781 243.222656 344.222656 280.476562 314.78125 298.390625 C 307.773438 302.65625 300.058594 306.371094 292.285156 308.933594 C 288.777344 310.089844 285.203125 310.542969 281.585938 311.199219 C 278.3125 311.792969 275.078125 312.613281 271.804688 313.222656 C 267.355469 314.046875 262.820312 314.890625 258.285156 315.210938 C 276.207031 316.296875 297.890625 315.246094 319.023438 310.65625 C 331.554688 307.933594 344.917969 303.140625 351.445312 292.097656 C 355.890625 284.582031 356.363281 275.4375 356.503906 266.707031 C 356.871094 243.515625 355.6875 220.335938 354.300781 197.183594 Z M 354.300781 197.183594 " fill-opacity="0.26" fill-rule="nonzero"/><path fill="#ffffff" d="M 89.742188 323.109375 C 70.421875 315.738281 53.082031 300.238281 48.675781 280.019531 C 44.484375 260.800781 52.300781 241.214844 59.957031 223.09375 C 68.136719 203.730469 76.316406 184.367188 84.5 165.003906 C 66.351562 189.3125 49.761719 214.828125 35.730469 241.722656 C 29.492188 253.675781 23.613281 266.699219 25.035156 280.109375 C 26.679688 295.578125 38.164062 308.757812 52.015625 315.820312 C 65.871094 322.882812 81.816406 324.65625 89.742188 323.113281 Z M 89.742188 323.109375 " fill-opacity="0.34" fill-rule="nonzero"/><path fill="#ffffff" d="M 50.144531 232.347656 C 48.332031 250.308594 49.363281 270.785156 62.675781 282.964844 C 73.300781 292.6875 88.808594 294.339844 103.171875 295.261719 C 181.179688 300.28125 260.007812 297.867188 336.648438 282.484375 C 321.542969 295.945312 300.730469 300.511719 280.886719 304.453125 C 205.375 319.441406 127.625 332.328125 51.773438 319.179688 C 39.824219 317.105469 26.851562 313.664062 19.957031 303.683594 C 12.390625 292.726562 14.867188 277.789062 19.46875 265.292969 C 29.984375 236.726562 49.539062 212.550781 68.757812 188.953125 C 57.605469 201.515625 51.613281 217.773438 50.144531 232.347656 Z M 50.144531 232.347656 " fill-opacity="0.34" fill-rule="nonzero"/><path fill="#ffffff" d="M 133.90625 201.726562 C 149.527344 179.421875 165.152344 157.117188 180.773438 134.808594 C 182.394531 132.496094 184.242188 130.023438 186.976562 129.320312 C 190.207031 128.488281 193.449219 130.421875 196.148438 132.378906 C 199.804688 135.023438 203.3125 137.867188 206.648438 140.902344 C 208.585938 142.664062 210.605469 144.808594 210.546875 147.429688 C 210.480469 150.441406 207.730469 152.605469 205.230469 154.28125 C 180.320312 170.960938 153.484375 185.234375 133.90625 201.726562 Z M 133.90625 201.726562 " fill-opacity="0.38" fill-rule="nonzero"/></svg>